<svg width="28" height="24" viewBox="0 0 28 24" fill="none" xmlns="http://www.w3.org/2000/svg">
<path d="M26.8333 0.333313H22.1667V3.83331H19.8333V0.333313H15.1667V3.83331H12.8333V0.333313H8.16667V3.83331H5.83333V0.333313H1.16667C0.857247 0.333313 0.560501 0.456229 0.341709 0.675022C0.122916 0.893814 0 1.19056 0 1.49998L0 22.5C0 22.8094 0.122916 23.1061 0.341709 23.3249C0.560501 23.5437 0.857247 23.6666 1.16667 23.6666H26.8333C27.1427 23.6666 27.4395 23.5437 27.6583 23.3249C27.8771 23.1061 28 22.8094 28 22.5V1.49998C28 1.19056 27.8771 0.893814 27.6583 0.675022C27.4395 0.456229 27.1427 0.333313 26.8333 0.333313ZM21.4887 15.2827L19.8333 14.1V19C19.8333 19.3094 19.7104 19.6061 19.4916 19.8249C19.2728 20.0437 18.9761 20.1666 18.6667 20.1666H15.75V15.5C15.75 15.1906 15.6271 14.8938 15.4083 14.675C15.1895 14.4562 14.8927 14.3333 14.5833 14.3333H13.4167C13.1072 14.3333 12.8105 14.4562 12.5917 14.675C12.3729 14.8938 12.25 15.1906 12.25 15.5V20.1666H9.33333C9.02391 20.1666 8.72717 20.0437 8.50837 19.8249C8.28958 19.6061 8.16667 19.3094 8.16667 19V14.1L6.51146 15.2827L5.15521 13.3839L13.3219 7.5506C13.5206 7.4113 13.7573 7.33657 14 7.33657C14.2427 7.33657 14.4794 7.4113 14.6781 7.5506L22.8448 13.3839L21.4887 15.2827Z" fill="white"/>
</svg>
